<mxfile host="65bd71144e">
    <diagram id="sY0-nLNpXMrYDOU7Baq7" name="Seite-1">
        <mxGraphModel dx="907" dy="667" grid="1" gridSize="10" guides="1" tooltips="1" connect="1" arrows="1" fold="1" page="1" pageScale="1" pageWidth="1654" pageHeight="1169" math="0" shadow="0">
            <root>
                <mxCell id="0"/>
                <mxCell id="1" parent="0"/>
                <mxCell id="104" value="&lt;font style=&quot;font-size: 20px&quot;&gt;&lt;b&gt;DARION privat&lt;/b&gt;&lt;/font&gt;" style="rounded=0;whiteSpace=wrap;html=1;align=center;verticalAlign=top;fillColor=#fa6800;strokeColor=#C73500;fontColor=#000000;" vertex="1" parent="1">
                    <mxGeometry x="880" y="721" width="560" height="1079" as="geometry"/>
                </mxCell>
                <mxCell id="103" value="&lt;font style=&quot;font-size: 20px&quot;&gt;&lt;b&gt;INTEGRATION&lt;/b&gt;&lt;/font&gt;" style="rounded=0;whiteSpace=wrap;html=1;align=center;verticalAlign=top;fillColor=#e3c800;strokeColor=#B09500;fontColor=#000000;" vertex="1" parent="1">
                    <mxGeometry x="880" y="40" width="560" height="560" as="geometry"/>
                </mxCell>
                <mxCell id="101" value="&lt;font style=&quot;font-size: 20px&quot;&gt;&lt;b&gt;PRODUKTION&lt;/b&gt;&lt;/font&gt;" style="rounded=0;whiteSpace=wrap;html=1;fillColor=#a0522d;strokeColor=#6D1F00;fontColor=#ffffff;align=center;verticalAlign=top;" vertex="1" parent="1">
                    <mxGeometry x="80" y="40" width="640" height="1760" as="geometry"/>
                </mxCell>
                <mxCell id="2" value="&lt;span lang=&quot;EN-US&quot; style=&quot;font-family: &amp;#34;liberation serif&amp;#34; , serif&quot;&gt;&lt;b style=&quot;font-size: 12pt&quot;&gt;STRATO: Managed Server XXLX-8&lt;/b&gt;&lt;b style=&quot;text-align: left&quot;&gt;&amp;nbsp;&lt;/b&gt;&lt;b style=&quot;font-size: 12pt&quot;&gt;&lt;br&gt;&lt;/b&gt;&lt;/span&gt;" style="rounded=1;whiteSpace=wrap;html=1;verticalAlign=top;fillColor=#f5f5f5;strokeColor=#666666;gradientColor=#b3b3b3;" parent="1" vertex="1">
                    <mxGeometry x="170" y="120" width="470" height="241" as="geometry"/>
                </mxCell>
                <mxCell id="3" value="&lt;ul style=&quot;font-family: &amp;quot;liberation serif&amp;quot; , serif&quot;&gt;&lt;li style=&quot;&quot;&gt;&lt;span lang=&quot;EN-US&quot;&gt;&lt;b&gt;CPU:&lt;/b&gt;&amp;nbsp;AMD Opteron(tm) Processor 4180 (6 x 2,6 GHz)&lt;/span&gt;&lt;/li&gt;&lt;li style=&quot;&quot;&gt;&lt;span lang=&quot;EN-US&quot;&gt;&lt;b&gt;Arbeitsspeicher&lt;/b&gt;: 16GB&lt;/span&gt;&lt;/li&gt;&lt;li style=&quot;&quot;&gt;&lt;span lang=&quot;EN-US&quot;&gt;&lt;b&gt;Persistenz:&lt;/b&gt;&amp;nbsp;&lt;/span&gt;806 GB HDD&lt;/li&gt;&lt;li style=&quot;&quot;&gt;&lt;b&gt;OS:&lt;/b&gt;&amp;nbsp;&lt;/li&gt;&lt;/ul&gt;" style="rounded=0;whiteSpace=wrap;html=1;verticalAlign=middle;align=left;" parent="1" vertex="1">
                    <mxGeometry x="235" y="151" width="340" height="110" as="geometry"/>
                </mxCell>
                <mxCell id="4" value="&lt;span style=&quot;font-size: 12.0pt ; font-family: &amp;#34;liberation serif&amp;#34; , serif&quot;&gt;&lt;b&gt;gradido.net: &lt;/b&gt;&lt;br&gt;gradido Hauptseite,&lt;br&gt;wordpress&lt;/span&gt;" style="rounded=1;whiteSpace=wrap;html=1;verticalAlign=top;fillColor=#e1d5e7;strokeColor=#9673a6;align=left;" parent="1" vertex="1">
                    <mxGeometry x="190" y="271" width="150" height="80" as="geometry"/>
                </mxCell>
                <mxCell id="5" value="&lt;font face=&quot;liberation serif, serif&quot;&gt;&lt;span style=&quot;font-size: 16px&quot;&gt;21 weitere Domains&lt;/span&gt;&lt;/font&gt;" style="rounded=1;whiteSpace=wrap;html=1;verticalAlign=top;fillColor=#e1d5e7;strokeColor=#9673a6;align=left;" parent="1" vertex="1">
                    <mxGeometry x="350" y="271" width="140" height="50" as="geometry"/>
                </mxCell>
                <mxCell id="6" value="&lt;span lang=&quot;EN-US&quot; style=&quot;font-family: &amp;#34;liberation serif&amp;#34; , serif&quot;&gt;&lt;b style=&quot;font-size: 12pt&quot;&gt;STRATO:&amp;nbsp;&lt;/b&gt;&lt;span lang=&quot;EN-US&quot; style=&quot;font-size: 12.0pt ; font-family: &amp;#34;liberation serif&amp;#34; , serif&quot;&gt;&lt;b&gt;Root Server Linux C4-47: Staging&lt;/b&gt;&lt;/span&gt;&lt;b style=&quot;font-size: 12pt&quot;&gt;&lt;br&gt;&lt;/b&gt;&lt;/span&gt;" style="rounded=1;whiteSpace=wrap;html=1;verticalAlign=top;fillColor=#f5f5f5;strokeColor=#666666;gradientColor=#b3b3b3;" parent="1" vertex="1">
                    <mxGeometry x="925" y="120" width="470" height="401" as="geometry"/>
                </mxCell>
                <mxCell id="7" value="&lt;ul style=&quot;font-family: &amp;#34;liberation serif&amp;#34; , serif&quot;&gt;&lt;li&gt;&lt;span lang=&quot;EN-US&quot;&gt;&lt;b&gt;CPU:&lt;/b&gt;&amp;nbsp;&lt;/span&gt;AMD Opteronâ„¢ 1385 (4 x 2,7 GHz)&lt;/li&gt;&lt;li&gt;&lt;span lang=&quot;EN-US&quot;&gt;&lt;b&gt;Arbeitsspeicher&lt;/b&gt;:&amp;nbsp;&lt;/span&gt;4 GB DDR 2 / 8 GB Swap&lt;/li&gt;&lt;li&gt;&lt;span lang=&quot;EN-US&quot;&gt;&lt;b&gt;Persistenz:&lt;/b&gt;&amp;nbsp;&lt;/span&gt;2 x 500 GB HDD (Raid 1)&lt;/li&gt;&lt;li&gt;&lt;b&gt;OS:&lt;/b&gt; Ubuntu 20.04 LTS 64bit&lt;/li&gt;&lt;li&gt;&lt;span lang=&quot;EN-US&quot; style=&quot;font-family: &amp;#34;liberation serif&amp;#34; , serif&quot;&gt;&lt;font style=&quot;font-size: 12px&quot;&gt;&lt;b&gt;IP/Port:&lt;/b&gt; 85.214.157.229:1618&lt;/font&gt;&lt;/span&gt;&lt;br&gt;&lt;/li&gt;&lt;/ul&gt;" style="rounded=0;whiteSpace=wrap;html=1;verticalAlign=middle;labelPosition=center;verticalLabelPosition=middle;align=left;spacing=0;spacingTop=0;" parent="1" vertex="1">
                    <mxGeometry x="990" y="151" width="365" height="109" as="geometry"/>
                </mxCell>
                <mxCell id="8" value="&lt;span lang=&quot;EN-US&quot; style=&quot;font-size: 12px; font-family: &amp;quot;liberation serif&amp;quot;, serif;&quot;&gt;nginx 1.18.0 (Ubuntu)&lt;br style=&quot;font-size: 12px;&quot;&gt;Port: 80 + 443&lt;/span&gt;" style="rounded=1;whiteSpace=wrap;html=1;verticalAlign=top;gradientColor=#97d077;fillColor=#d5e8d4;strokeColor=#82b366;align=left;fontSize=12;" parent="1" vertex="1">
                    <mxGeometry x="945" y="271" width="120" height="40" as="geometry"/>
                </mxCell>
                <mxCell id="9" value="&lt;span lang=&quot;EN-US&quot; style=&quot;font-size: 12px; font-family: &amp;quot;liberation serif&amp;quot;, serif;&quot;&gt;php-fpm7.4&lt;/span&gt;" style="rounded=1;whiteSpace=wrap;html=1;verticalAlign=top;gradientColor=#97d077;fillColor=#d5e8d4;strokeColor=#82b366;align=left;fontSize=12;" parent="1" vertex="1">
                    <mxGeometry x="1072" y="271" width="63" height="29" as="geometry"/>
                </mxCell>
                <mxCell id="10" value="&lt;span lang=&quot;EN-US&quot; style=&quot;font-size: 12px; font-family: &amp;quot;liberation serif&amp;quot;, serif;&quot;&gt;mariadb&amp;nbsp; Ver 15.1 &lt;br style=&quot;font-size: 12px;&quot;&gt;Distrib 10.3.31-MariaDB&lt;br style=&quot;font-size: 12px;&quot;&gt;Port: 3306&lt;/span&gt;" style="rounded=1;whiteSpace=wrap;html=1;verticalAlign=top;gradientColor=#97d077;fillColor=#d5e8d4;strokeColor=#82b366;align=left;fontSize=12;" parent="1" vertex="1">
                    <mxGeometry x="1165" y="319.75" width="130" height="50" as="geometry"/>
                </mxCell>
                <mxCell id="11" value="&lt;span lang=&quot;EN-US&quot; style=&quot;font-size: 12px; font-family: &amp;quot;liberation serif&amp;quot;, serif;&quot;&gt;ufw 0.36&lt;/span&gt;" style="rounded=1;whiteSpace=wrap;html=1;verticalAlign=top;gradientColor=#97d077;fillColor=#d5e8d4;strokeColor=#82b366;align=left;fontSize=12;" parent="1" vertex="1">
                    <mxGeometry x="1141" y="271" width="63" height="30" as="geometry"/>
                </mxCell>
                <mxCell id="12" value="&lt;span lang=&quot;EN-US&quot; style=&quot;font-size: 12px; font-family: &amp;quot;liberation serif&amp;quot;, serif;&quot;&gt;node v12.19.0&lt;/span&gt;" style="rounded=1;whiteSpace=wrap;html=1;verticalAlign=top;gradientColor=#97d077;fillColor=#d5e8d4;strokeColor=#82b366;align=left;fontSize=12;" parent="1" vertex="1">
                    <mxGeometry x="1215" y="271" width="80" height="30" as="geometry"/>
                </mxCell>
                <mxCell id="13" value="&lt;span lang=&quot;EN-US&quot; style=&quot;font-size: 12px; font-family: &amp;quot;liberation serif&amp;quot;, serif;&quot;&gt;Gradido Backend &lt;br style=&quot;font-size: 12px;&quot;&gt;Port: 4000&lt;/span&gt;" style="rounded=1;whiteSpace=wrap;html=1;verticalAlign=top;gradientColor=#97d077;fillColor=#d5e8d4;strokeColor=#82b366;align=left;fontSize=12;" parent="1" vertex="1">
                    <mxGeometry x="945" y="319.75" width="90" height="51.25" as="geometry"/>
                </mxCell>
                <mxCell id="14" value="&lt;span lang=&quot;EN-US&quot; style=&quot;font-size: 12px; font-family: &amp;quot;liberation serif&amp;quot;, serif;&quot;&gt;Gradido Login Server &lt;br style=&quot;font-size: 12px;&quot;&gt;HTTP Port: 1200&lt;br style=&quot;font-size: 12px;&quot;&gt;JSON: 1201&lt;/span&gt;" style="rounded=1;whiteSpace=wrap;html=1;verticalAlign=top;gradientColor=#97d077;fillColor=#d5e8d4;strokeColor=#82b366;align=left;fontSize=12;" parent="1" vertex="1">
                    <mxGeometry x="1042" y="319.75" width="110" height="51" as="geometry"/>
                </mxCell>
                <mxCell id="15" value="&lt;span lang=&quot;EN-US&quot; style=&quot;font-size: 12px ; font-family: &amp;#34;liberation serif&amp;#34; , serif&quot;&gt;&lt;b&gt;gdt.gradido.net:&lt;/b&gt; GDT-Server for testing&lt;/span&gt;" style="rounded=1;whiteSpace=wrap;html=1;verticalAlign=top;fillColor=#e1d5e7;strokeColor=#9673a6;align=left;fontSize=12;" parent="1" vertex="1">
                    <mxGeometry x="945" y="381" width="120" height="40" as="geometry"/>
                </mxCell>
                <mxCell id="16" value="&lt;span lang=&quot;EN-US&quot; style=&quot;font-family: &amp;#34;liberation serif&amp;#34; , serif&quot;&gt;&lt;font style=&quot;font-size: 12px&quot;&gt;&lt;b&gt;stage1.gradido.net:&lt;/b&gt; Auto-Deployed Gradido Setup on master branch&lt;/font&gt;&lt;/span&gt;" style="rounded=1;whiteSpace=wrap;html=1;verticalAlign=top;fillColor=#e1d5e7;strokeColor=#9673a6;align=left;fontSize=12;" parent="1" vertex="1">
                    <mxGeometry x="945" y="431" width="120" height="70" as="geometry"/>
                </mxCell>
                <mxCell id="17" value="&lt;span lang=&quot;EN-US&quot; style=&quot;font-family: &amp;#34;liberation serif&amp;#34; , serif&quot;&gt;&lt;font style=&quot;font-size: 12px&quot;&gt;&lt;b&gt;stagelive.gradido.net:&lt;/b&gt; Test with Live Data (dbs deleted&lt;/font&gt;&lt;/span&gt;" style="rounded=1;whiteSpace=wrap;html=1;verticalAlign=top;fillColor=#e1d5e7;strokeColor=#9673a6;align=left;fontSize=12;" vertex="1" parent="1">
                    <mxGeometry x="1075" y="431" width="110" height="70" as="geometry"/>
                </mxCell>
                <mxCell id="18" value="&lt;span lang=&quot;EN-US&quot; style=&quot;font-family: &amp;#34;liberation serif&amp;#34; , serif&quot;&gt;&lt;font style=&quot;font-size: 12px&quot;&gt;&lt;b&gt;staging.gradido.net:&lt;/b&gt;&lt;/font&gt;&lt;/span&gt;" style="rounded=1;whiteSpace=wrap;html=1;verticalAlign=top;fillColor=#e1d5e7;strokeColor=#9673a6;align=left;fontSize=12;" vertex="1" parent="1">
                    <mxGeometry x="1075" y="381" width="110" height="40" as="geometry"/>
                </mxCell>
                <mxCell id="19" value="&lt;span lang=&quot;EN-US&quot; style=&quot;font-family: &amp;#34;liberation serif&amp;#34; , serif&quot;&gt;&lt;font style=&quot;font-size: 12px&quot;&gt;Login via ssh key or password&lt;/font&gt;&lt;/span&gt;" style="rounded=1;whiteSpace=wrap;html=1;verticalAlign=top;fillColor=#f5f5f5;strokeColor=#666666;align=left;fontSize=12;fontColor=#333333;" vertex="1" parent="1">
                    <mxGeometry x="1245" y="411" width="110" height="40" as="geometry"/>
                </mxCell>
                <mxCell id="20" value="&lt;span lang=&quot;EN-US&quot; style=&quot;font-family: &amp;#34;liberation serif&amp;#34; , serif&quot;&gt;&lt;font style=&quot;font-size: 12px&quot;&gt;non standard ssh-port&lt;/font&gt;&lt;/span&gt;" style="rounded=1;whiteSpace=wrap;html=1;verticalAlign=top;fillColor=#f5f5f5;strokeColor=#666666;align=left;fontSize=12;fontColor=#333333;" vertex="1" parent="1">
                    <mxGeometry x="1245" y="461" width="110" height="40" as="geometry"/>
                </mxCell>
                <mxCell id="21" value="&lt;span lang=&quot;EN-US&quot; style=&quot;font-family: &amp;#34;liberation serif&amp;#34; , serif&quot;&gt;&lt;b style=&quot;font-size: 12pt&quot;&gt;STRATO:&amp;nbsp;&lt;/b&gt;&lt;span lang=&quot;EN-US&quot; style=&quot;font-size: 12.0pt ; font-family: &amp;#34;liberation serif&amp;#34; , serif&quot;&gt;&lt;b&gt;Root Server Linux C4-40: Support&lt;/b&gt;&lt;/span&gt;&lt;b style=&quot;font-size: 12pt&quot;&gt;&lt;br&gt;&lt;/b&gt;&lt;/span&gt;" style="rounded=1;whiteSpace=wrap;html=1;verticalAlign=top;fillColor=#f5f5f5;strokeColor=#666666;gradientColor=#b3b3b3;" vertex="1" parent="1">
                    <mxGeometry x="170" y="401" width="470" height="440" as="geometry"/>
                </mxCell>
                <mxCell id="22" value="&lt;ul style=&quot;font-family: &amp;#34;liberation serif&amp;#34; , serif&quot;&gt;&lt;li&gt;&lt;span lang=&quot;EN-US&quot;&gt;&lt;b&gt;CPU:&lt;/b&gt;&amp;nbsp;&lt;/span&gt;AMD Opteronâ„¢ 1389 (4 x 2,9 GHz)&lt;/li&gt;&lt;li&gt;&lt;span lang=&quot;EN-US&quot;&gt;&lt;b&gt;Arbeitsspeicher&lt;/b&gt;: 8&lt;/span&gt;&amp;nbsp;GB DDR 2 / 8 GB Swap&lt;/li&gt;&lt;li&gt;&lt;span lang=&quot;EN-US&quot;&gt;&lt;b&gt;Persistenz:&lt;/b&gt;&amp;nbsp;&lt;/span&gt;2 x 1 TB HDD (Raid 1)&lt;/li&gt;&lt;li&gt;&lt;b&gt;OS:&lt;/b&gt; Ubuntu 18.04 LTS 64bit&lt;/li&gt;&lt;li&gt;&lt;span lang=&quot;EN-US&quot; style=&quot;font-family: &amp;#34;liberation serif&amp;#34; , serif&quot;&gt;&lt;font style=&quot;font-size: 12px&quot;&gt;&lt;b&gt;IP/Port:&lt;/b&gt;&amp;nbsp;&lt;/font&gt;&lt;/span&gt;85.214.26.213: 11771&lt;br&gt;&lt;/li&gt;&lt;/ul&gt;" style="rounded=0;whiteSpace=wrap;html=1;verticalAlign=middle;labelPosition=center;verticalLabelPosition=middle;align=left;spacing=0;spacingTop=0;" vertex="1" parent="1">
                    <mxGeometry x="235" y="432" width="365" height="109" as="geometry"/>
                </mxCell>
                <mxCell id="23" value="&lt;span lang=&quot;EN-US&quot; style=&quot;font-size: 12px ; font-family: &amp;#34;liberation serif&amp;#34; , serif&quot;&gt;nginx 1.14.0 (Ubuntu)&lt;br style=&quot;font-size: 12px&quot;&gt;Port: 80 + 443&lt;/span&gt;" style="rounded=1;whiteSpace=wrap;html=1;verticalAlign=top;gradientColor=#97d077;fillColor=#d5e8d4;strokeColor=#82b366;align=left;fontSize=12;" vertex="1" parent="1">
                    <mxGeometry x="190" y="552" width="120" height="40" as="geometry"/>
                </mxCell>
                <mxCell id="24" value="&lt;span lang=&quot;EN-US&quot; style=&quot;font-size: 12px ; font-family: &amp;#34;liberation serif&amp;#34; , serif&quot;&gt;php-fpm7.2&lt;/span&gt;" style="rounded=1;whiteSpace=wrap;html=1;verticalAlign=top;gradientColor=#97d077;fillColor=#d5e8d4;strokeColor=#82b366;align=left;fontSize=12;" vertex="1" parent="1">
                    <mxGeometry x="317" y="552" width="63" height="29" as="geometry"/>
                </mxCell>
                <mxCell id="25" value="&lt;span lang=&quot;EN-US&quot; style=&quot;font-size: 12px ; font-family: &amp;#34;liberation serif&amp;#34; , serif&quot;&gt;mariadb&amp;nbsp; Ver 15.1 &lt;br style=&quot;font-size: 12px&quot;&gt;Distrib 10.1.44-MariaDB&lt;br style=&quot;font-size: 12px&quot;&gt;Port: 3306&lt;/span&gt;" style="rounded=1;whiteSpace=wrap;html=1;verticalAlign=top;gradientColor=#97d077;fillColor=#d5e8d4;strokeColor=#82b366;align=left;fontSize=12;" vertex="1" parent="1">
                    <mxGeometry x="460" y="552" width="130" height="50" as="geometry"/>
                </mxCell>
                <mxCell id="26" value="&lt;span lang=&quot;EN-US&quot; style=&quot;font-size: 12px; font-family: &amp;quot;liberation serif&amp;quot;, serif;&quot;&gt;ufw 0.36&lt;/span&gt;" style="rounded=1;whiteSpace=wrap;html=1;verticalAlign=top;gradientColor=#97d077;fillColor=#d5e8d4;strokeColor=#82b366;align=left;fontSize=12;" vertex="1" parent="1">
                    <mxGeometry x="386" y="552" width="63" height="30" as="geometry"/>
                </mxCell>
                <mxCell id="28" value="&lt;span lang=&quot;EN-US&quot; style=&quot;font-family: &amp;#34;liberation serif&amp;#34; , serif&quot;&gt;&lt;font style=&quot;font-size: 12px&quot;&gt;Elasticsearch version 7.8.0, Port 9200&lt;/font&gt;&lt;/span&gt;" style="rounded=1;whiteSpace=wrap;html=1;verticalAlign=top;gradientColor=#97d077;fillColor=#d5e8d4;strokeColor=#82b366;align=left;fontSize=12;" vertex="1" parent="1">
                    <mxGeometry x="190" y="611" width="90" height="51.25" as="geometry"/>
                </mxCell>
                <mxCell id="29" value="&lt;span lang=&quot;EN-US&quot; style=&quot;font-family: &amp;#34;liberation serif&amp;#34; , serif&quot;&gt;&lt;font style=&quot;font-size: 12px&quot;&gt;Zammad (install: Puma 3.12.6, Port 3000, Postgresql, Port 5432, redis, Port 6379)&lt;/font&gt;&lt;/span&gt;" style="rounded=1;whiteSpace=wrap;html=1;verticalAlign=top;gradientColor=#97d077;fillColor=#d5e8d4;strokeColor=#82b366;align=left;fontSize=12;" vertex="1" parent="1">
                    <mxGeometry x="287" y="611" width="163" height="50.25" as="geometry"/>
                </mxCell>
                <mxCell id="30" value="&lt;span style=&quot;font-family: &amp;#34;liberation serif&amp;#34; , serif&quot;&gt;&lt;font style=&quot;font-size: 12px&quot;&gt;&lt;b&gt;kanban.gradido.net:&lt;/b&gt; Wekan Kanban Board, anfangs fÃ¼r Sprintplanung genutzt&lt;/font&gt;&lt;/span&gt;" style="rounded=1;whiteSpace=wrap;html=1;verticalAlign=top;fillColor=#e1d5e7;strokeColor=#9673a6;align=left;fontSize=12;" vertex="1" parent="1">
                    <mxGeometry x="190" y="681" width="130" height="70" as="geometry"/>
                </mxCell>
                <mxCell id="31" value="&lt;span style=&quot;font-family: &amp;#34;liberation serif&amp;#34; , serif&quot;&gt;&lt;font style=&quot;font-size: 12px&quot;&gt;&lt;b&gt;support.gradido.net: &lt;/b&gt;Zammad&lt;br&gt;Support-Tool, lief nicht mit 4 GB Arbeitsspeicher&lt;/font&gt;&lt;/span&gt;" style="rounded=1;whiteSpace=wrap;html=1;verticalAlign=top;fillColor=#e1d5e7;strokeColor=#9673a6;align=left;fontSize=12;" vertex="1" parent="1">
                    <mxGeometry x="330" y="731" width="110" height="80" as="geometry"/>
                </mxCell>
                <mxCell id="33" value="&lt;span style=&quot;font-family: &amp;#34;liberation serif&amp;#34; , serif&quot;&gt;&lt;font style=&quot;font-size: 12px&quot;&gt;&lt;b&gt;wolke.gradido.net:&lt;/b&gt;&lt;br&gt;Nextcloud&lt;/font&gt;&lt;/span&gt;" style="rounded=1;whiteSpace=wrap;html=1;verticalAlign=top;fillColor=#e1d5e7;strokeColor=#9673a6;align=left;fontSize=12;" vertex="1" parent="1">
                    <mxGeometry x="330" y="681" width="110" height="40" as="geometry"/>
                </mxCell>
                <mxCell id="34" value="&lt;span lang=&quot;EN-US&quot; style=&quot;font-family: &amp;#34;liberation serif&amp;#34; , serif&quot;&gt;&lt;font style=&quot;font-size: 12px&quot;&gt;Login via password&lt;/font&gt;&lt;/span&gt;" style="rounded=1;whiteSpace=wrap;html=1;verticalAlign=top;align=left;fontSize=12;fillColor=#f5f5f5;strokeColor=#666666;fontColor=#333333;" vertex="1" parent="1">
                    <mxGeometry x="490" y="691" width="110" height="40" as="geometry"/>
                </mxCell>
                <mxCell id="35" value="&lt;span lang=&quot;EN-US&quot; style=&quot;font-family: &amp;#34;liberation serif&amp;#34; , serif&quot;&gt;&lt;font style=&quot;font-size: 12px&quot;&gt;non standard ssh-port&lt;/font&gt;&lt;/span&gt;" style="rounded=1;whiteSpace=wrap;html=1;verticalAlign=top;align=left;fontSize=12;fillColor=#f5f5f5;strokeColor=#666666;fontColor=#333333;" vertex="1" parent="1">
                    <mxGeometry x="490" y="742" width="110" height="40" as="geometry"/>
                </mxCell>
                <mxCell id="36" value="&lt;span lang=&quot;EN-US&quot; style=&quot;font-family: &amp;#34;liberation serif&amp;#34; , serif&quot;&gt;&lt;font style=&quot;font-size: 12px&quot;&gt;no ssh&lt;/font&gt;&lt;/span&gt;" style="rounded=1;whiteSpace=wrap;html=1;verticalAlign=top;fillColor=#f5f5f5;strokeColor=#666666;align=left;fontSize=12;fontColor=#333333;" vertex="1" parent="1">
                    <mxGeometry x="510" y="271" width="90" height="40" as="geometry"/>
                </mxCell>
                <mxCell id="37" value="&lt;span lang=&quot;EN-US&quot; style=&quot;font-family: &amp;#34;liberation serif&amp;#34; , serif&quot;&gt;&lt;font style=&quot;font-size: 12px&quot;&gt;loolwsd (part of nextlcoud for edit documents in Browser) Port: 9982 + 9983&lt;/font&gt;&lt;/span&gt;" style="rounded=1;whiteSpace=wrap;html=1;verticalAlign=top;gradientColor=#97d077;fillColor=#d5e8d4;strokeColor=#82b366;align=left;fontSize=12;" vertex="1" parent="1">
                    <mxGeometry x="460" y="611.25" width="150" height="50" as="geometry"/>
                </mxCell>
                <mxCell id="38" value="&lt;span lang=&quot;EN-US&quot; style=&quot;font-family: &amp;#34;liberation serif&amp;#34; , serif&quot;&gt;&lt;b style=&quot;font-size: 12pt&quot;&gt;STRATO:&amp;nbsp;&lt;/b&gt;&lt;span style=&quot;font-size: 12.0pt ; font-family: &amp;#34;liberation serif&amp;#34; , serif&quot;&gt;&lt;b&gt;VPS Linux V5-49: git + gdt&lt;/b&gt;&lt;/span&gt;&lt;b style=&quot;font-size: 12pt&quot;&gt;&lt;br&gt;&lt;/b&gt;&lt;/span&gt;" style="rounded=1;whiteSpace=wrap;html=1;verticalAlign=top;fillColor=#f5f5f5;strokeColor=#666666;gradientColor=#b3b3b3;" vertex="1" parent="1">
                    <mxGeometry x="170" y="881" width="470" height="400" as="geometry"/>
                </mxCell>
                <mxCell id="39" value="&lt;ul style=&quot;font-family: &amp;#34;liberation serif&amp;#34; , serif&quot;&gt;&lt;li&gt;&lt;span lang=&quot;EN-US&quot;&gt;&lt;b&gt;CPU:&lt;/b&gt;&amp;nbsp;1x&lt;/span&gt;&amp;nbsp;vCore (2 GHz)&lt;/li&gt;&lt;li&gt;&lt;span lang=&quot;EN-US&quot;&gt;&lt;b&gt;Arbeitsspeicher&lt;/b&gt;: 1&lt;/span&gt;&amp;nbsp;GB / kein Swap&lt;/li&gt;&lt;li&gt;&lt;span lang=&quot;EN-US&quot;&gt;&lt;b&gt;Persistenz:&lt;/b&gt;&amp;nbsp;30&lt;/span&gt;&amp;nbsp;GB HDD&lt;/li&gt;&lt;li&gt;&lt;b&gt;OS:&lt;/b&gt; Ubuntu 18.04 LTS 64bit&lt;/li&gt;&lt;li&gt;&lt;span lang=&quot;EN-US&quot; style=&quot;font-family: &amp;#34;liberation serif&amp;#34; , serif&quot;&gt;&lt;font style=&quot;font-size: 12px&quot;&gt;&lt;b&gt;IP/Port:&lt;/b&gt;&amp;nbsp;&lt;/font&gt;&lt;/span&gt;85.214.134.190: 19152&lt;br&gt;&lt;/li&gt;&lt;/ul&gt;" style="rounded=0;whiteSpace=wrap;html=1;verticalAlign=middle;labelPosition=center;verticalLabelPosition=middle;align=left;spacing=0;spacingTop=0;" vertex="1" parent="1">
                    <mxGeometry x="235" y="912" width="365" height="109" as="geometry"/>
                </mxCell>
                <mxCell id="40" value="&lt;span lang=&quot;EN-US&quot; style=&quot;font-size: 12px ; font-family: &amp;#34;liberation serif&amp;#34; , serif&quot;&gt;nginx 1.14.0 (Ubuntu)&lt;br style=&quot;font-size: 12px&quot;&gt;Port: 80 + 443&lt;/span&gt;" style="rounded=1;whiteSpace=wrap;html=1;verticalAlign=top;gradientColor=#97d077;fillColor=#d5e8d4;strokeColor=#82b366;align=left;fontSize=12;" vertex="1" parent="1">
                    <mxGeometry x="190" y="1032" width="120" height="40" as="geometry"/>
                </mxCell>
                <mxCell id="41" value="&lt;span lang=&quot;EN-US&quot; style=&quot;font-size: 12px ; font-family: &amp;#34;liberation serif&amp;#34; , serif&quot;&gt;php-fpm7.2&lt;/span&gt;" style="rounded=1;whiteSpace=wrap;html=1;verticalAlign=top;gradientColor=#97d077;fillColor=#d5e8d4;strokeColor=#82b366;align=left;fontSize=12;" vertex="1" parent="1">
                    <mxGeometry x="317" y="1032" width="63" height="29" as="geometry"/>
                </mxCell>
                <mxCell id="42" value="&lt;span lang=&quot;EN-US&quot; style=&quot;font-size: 12px ; font-family: &amp;#34;liberation serif&amp;#34; , serif&quot;&gt;mariadb&amp;nbsp; Ver 15.1 &lt;br style=&quot;font-size: 12px&quot;&gt;Distrib 10.4.12-MariaDB&lt;br style=&quot;font-size: 12px&quot;&gt;Port: 3306&lt;/span&gt;" style="rounded=1;whiteSpace=wrap;html=1;verticalAlign=top;gradientColor=#97d077;fillColor=#d5e8d4;strokeColor=#82b366;align=left;fontSize=12;" vertex="1" parent="1">
                    <mxGeometry x="290" y="1099.75" width="130" height="50" as="geometry"/>
                </mxCell>
                <mxCell id="43" value="&lt;span lang=&quot;EN-US&quot; style=&quot;font-size: 12px; font-family: &amp;quot;liberation serif&amp;quot;, serif;&quot;&gt;ufw 0.36&lt;/span&gt;" style="rounded=1;whiteSpace=wrap;html=1;verticalAlign=top;gradientColor=#97d077;fillColor=#d5e8d4;strokeColor=#82b366;align=left;fontSize=12;" vertex="1" parent="1">
                    <mxGeometry x="386" y="1032" width="63" height="30" as="geometry"/>
                </mxCell>
                <mxCell id="44" value="&lt;span lang=&quot;EN-US&quot; style=&quot;font-family: &amp;#34;liberation serif&amp;#34; , serif&quot;&gt;&lt;font style=&quot;font-size: 12px&quot;&gt;MongoDB version v3.6.3, Port: 27017&lt;/font&gt;&lt;/span&gt;" style="rounded=1;whiteSpace=wrap;html=1;verticalAlign=top;gradientColor=#97d077;fillColor=#d5e8d4;strokeColor=#82b366;align=left;fontSize=12;" vertex="1" parent="1">
                    <mxGeometry x="190" y="1099.75" width="90" height="51.25" as="geometry"/>
                </mxCell>
                <mxCell id="45" value="&lt;span lang=&quot;EN-US&quot; style=&quot;font-family: &amp;#34;liberation serif&amp;#34; , serif&quot;&gt;&lt;font style=&quot;font-size: 12px&quot;&gt;OpenSSL 1.1.1&lt;/font&gt;&lt;/span&gt;" style="rounded=1;whiteSpace=wrap;html=1;verticalAlign=top;gradientColor=#97d077;fillColor=#d5e8d4;strokeColor=#82b366;align=left;fontSize=12;" vertex="1" parent="1">
                    <mxGeometry x="457" y="1032" width="83" height="30" as="geometry"/>
                </mxCell>
                <mxCell id="46" value="&lt;span lang=&quot;EN-US&quot; style=&quot;font-family: &amp;#34;liberation serif&amp;#34; , serif&quot;&gt;&lt;font style=&quot;font-size: 12px&quot;&gt;&lt;b&gt;gdt.gradido.com: &lt;/b&gt;&lt;br&gt;Main Production GDT-Server&lt;/font&gt;&lt;/span&gt;" style="rounded=1;whiteSpace=wrap;html=1;verticalAlign=top;fillColor=#e1d5e7;strokeColor=#9673a6;align=left;fontSize=12;" vertex="1" parent="1">
                    <mxGeometry x="190" y="1161" width="130" height="70" as="geometry"/>
                </mxCell>
                <mxCell id="49" value="&lt;span lang=&quot;EN-US&quot; style=&quot;font-family: &amp;#34;liberation serif&amp;#34; , serif&quot;&gt;&lt;font style=&quot;font-size: 12px&quot;&gt;admin login only via password&lt;/font&gt;&lt;/span&gt;" style="rounded=1;whiteSpace=wrap;html=1;verticalAlign=top;align=left;fontSize=12;fillColor=#f5f5f5;strokeColor=#666666;fontColor=#333333;" vertex="1" parent="1">
                    <mxGeometry x="370" y="1170" width="110" height="40" as="geometry"/>
                </mxCell>
                <mxCell id="50" value="&lt;span lang=&quot;EN-US&quot; style=&quot;font-family: &amp;#34;liberation serif&amp;#34; , serif&quot;&gt;&lt;font style=&quot;font-size: 12px&quot;&gt;non standard ssh-port&lt;/font&gt;&lt;/span&gt;" style="rounded=1;whiteSpace=wrap;html=1;verticalAlign=top;align=left;fontSize=12;fillColor=#f5f5f5;strokeColor=#666666;fontColor=#333333;" vertex="1" parent="1">
                    <mxGeometry x="490" y="1170" width="110" height="40" as="geometry"/>
                </mxCell>
                <mxCell id="52" value="&lt;span lang=&quot;EN-US&quot; style=&quot;font-family: &amp;#34;liberation serif&amp;#34; , serif&quot;&gt;&lt;font style=&quot;font-size: 12px&quot;&gt;git main repository before we used github&lt;/font&gt;&lt;/span&gt;" style="rounded=1;whiteSpace=wrap;html=1;verticalAlign=top;gradientColor=#97d077;fillColor=#d5e8d4;strokeColor=#82b366;align=left;fontSize=12;" vertex="1" parent="1">
                    <mxGeometry x="433.5" y="1099.75" width="130" height="50" as="geometry"/>
                </mxCell>
                <mxCell id="53" value="&lt;span lang=&quot;EN-US&quot; style=&quot;font-family: &amp;#34;liberation serif&amp;#34; , serif&quot;&gt;&lt;font style=&quot;font-size: 12px&quot;&gt;git login also via ssh-key&lt;/font&gt;&lt;/span&gt;" style="rounded=1;whiteSpace=wrap;html=1;verticalAlign=top;align=left;fontSize=12;fillColor=#f5f5f5;strokeColor=#666666;fontColor=#333333;" vertex="1" parent="1">
                    <mxGeometry x="370" y="1220" width="110" height="40" as="geometry"/>
                </mxCell>
                <mxCell id="54" value="&lt;span lang=&quot;EN-US&quot; style=&quot;font-family: &amp;#34;liberation serif&amp;#34; , serif&quot;&gt;&lt;font style=&quot;font-size: 10px&quot;&gt;10 Tage Backup&lt;/font&gt;&lt;/span&gt;" style="rounded=1;whiteSpace=wrap;html=1;verticalAlign=top;align=left;fontSize=12;fillColor=#f5f5f5;strokeColor=#666666;fontColor=#333333;" vertex="1" parent="1">
                    <mxGeometry x="490" y="1220" width="110" height="40" as="geometry"/>
                </mxCell>
                <mxCell id="55" value="&lt;span lang=&quot;EN-US&quot; style=&quot;font-family: &amp;#34;liberation serif&amp;#34; , serif&quot;&gt;&lt;b&gt;&lt;span style=&quot;font-size: 12pt&quot;&gt;1fire:&amp;nbsp;&lt;/span&gt;&lt;span lang=&quot;EN-US&quot; style=&quot;font-size: 12.0pt ; font-family: &amp;#34;liberation serif&amp;#34; , serif&quot;&gt;VPS Linux: Main Production Server&lt;/span&gt;&lt;/b&gt;&lt;b style=&quot;font-size: 12pt&quot;&gt;&lt;br&gt;&lt;/b&gt;&lt;/span&gt;" style="rounded=1;whiteSpace=wrap;html=1;verticalAlign=top;fillColor=#f5f5f5;strokeColor=#666666;gradientColor=#b3b3b3;" vertex="1" parent="1">
                    <mxGeometry x="170" y="1321" width="470" height="400" as="geometry"/>
                </mxCell>
                <mxCell id="56" value="&lt;ul style=&quot;font-family: &amp;#34;liberation serif&amp;#34; , serif&quot;&gt;&lt;li&gt;&lt;span lang=&quot;EN-US&quot;&gt;&lt;b&gt;CPU:&lt;/b&gt;&amp;nbsp;1x&lt;/span&gt;&amp;nbsp;vCore (2,4 GHz)&lt;/li&gt;&lt;li&gt;&lt;span lang=&quot;EN-US&quot;&gt;&lt;b&gt;Arbeitsspeicher&lt;/b&gt;: 1&lt;/span&gt;&amp;nbsp;GB / kein Swap&lt;/li&gt;&lt;li&gt;&lt;span lang=&quot;EN-US&quot;&gt;&lt;b&gt;Persistenz:&lt;/b&gt;&amp;nbsp;25 GB&lt;/span&gt;&lt;/li&gt;&lt;li&gt;&lt;b&gt;OS:&lt;/b&gt; Ubuntu 18.04.1 LTS&lt;/li&gt;&lt;li&gt;&lt;span lang=&quot;EN-US&quot; style=&quot;font-family: &amp;#34;liberation serif&amp;#34; , serif&quot;&gt;&lt;font style=&quot;font-size: 12px&quot;&gt;&lt;b&gt;IP/Port:&lt;/b&gt;&amp;nbsp;&lt;/font&gt;&lt;/span&gt;212.83.56.124: 17611&lt;br&gt;&lt;/li&gt;&lt;/ul&gt;" style="rounded=0;whiteSpace=wrap;html=1;verticalAlign=middle;labelPosition=center;verticalLabelPosition=middle;align=left;spacing=0;spacingTop=0;" vertex="1" parent="1">
                    <mxGeometry x="235" y="1352" width="365" height="109" as="geometry"/>
                </mxCell>
                <mxCell id="57" value="&lt;span lang=&quot;EN-US&quot; style=&quot;font-size: 12px ; font-family: &amp;#34;liberation serif&amp;#34; , serif&quot;&gt;nginx 1.14.0 (Ubuntu)&lt;br style=&quot;font-size: 12px&quot;&gt;Port: 80 + 443&lt;/span&gt;" style="rounded=1;whiteSpace=wrap;html=1;verticalAlign=top;gradientColor=#97d077;fillColor=#d5e8d4;strokeColor=#82b366;align=left;fontSize=12;" vertex="1" parent="1">
                    <mxGeometry x="190" y="1472" width="120" height="40" as="geometry"/>
                </mxCell>
                <mxCell id="58" value="&lt;span lang=&quot;EN-US&quot; style=&quot;font-size: 12px ; font-family: &amp;#34;liberation serif&amp;#34; , serif&quot;&gt;php-fpm7.2&lt;/span&gt;" style="rounded=1;whiteSpace=wrap;html=1;verticalAlign=top;gradientColor=#97d077;fillColor=#d5e8d4;strokeColor=#82b366;align=left;fontSize=12;" vertex="1" parent="1">
                    <mxGeometry x="317" y="1472" width="93" height="29" as="geometry"/>
                </mxCell>
                <mxCell id="60" value="&lt;span lang=&quot;EN-US&quot; style=&quot;font-size: 12px ; font-family: &amp;#34;liberation serif&amp;#34; , serif&quot;&gt;ufw 0.35&lt;/span&gt;" style="rounded=1;whiteSpace=wrap;html=1;verticalAlign=top;gradientColor=#97d077;fillColor=#d5e8d4;strokeColor=#82b366;align=left;fontSize=12;" vertex="1" parent="1">
                    <mxGeometry x="446" y="1472" width="63" height="30" as="geometry"/>
                </mxCell>
                <mxCell id="61" value="&lt;span lang=&quot;EN-US&quot; style=&quot;font-family: &amp;#34;liberation serif&amp;#34; , serif&quot;&gt;mariadb&amp;nbsp; Ver 15.1 &lt;br&gt;Distrib 10.1.43-MariaDB, &lt;br&gt;Port: 3306&lt;/span&gt;" style="rounded=1;whiteSpace=wrap;html=1;verticalAlign=top;gradientColor=#97d077;fillColor=#d5e8d4;strokeColor=#82b366;align=left;fontSize=12;" vertex="1" parent="1">
                    <mxGeometry x="190" y="1543.25" width="130" height="51.25" as="geometry"/>
                </mxCell>
                <mxCell id="62" value="&lt;span lang=&quot;EN-US&quot; style=&quot;font-family: &amp;#34;liberation serif&amp;#34; , serif&quot;&gt;&lt;font style=&quot;font-size: 12px&quot;&gt;node v12.13.1&lt;/font&gt;&lt;/span&gt;" style="rounded=1;whiteSpace=wrap;html=1;verticalAlign=top;gradientColor=#97d077;fillColor=#d5e8d4;strokeColor=#82b366;align=left;fontSize=12;" vertex="1" parent="1">
                    <mxGeometry x="517" y="1472" width="83" height="30" as="geometry"/>
                </mxCell>
                <mxCell id="63" value="&lt;span lang=&quot;EN-US&quot; style=&quot;font-family: &amp;#34;liberation serif&amp;#34; , serif&quot;&gt;&lt;font style=&quot;font-size: 12px&quot;&gt;&lt;b&gt;gdd1.gradido.com: &lt;/b&gt;Gradido Main Server&lt;/font&gt;&lt;/span&gt;" style="rounded=1;whiteSpace=wrap;html=1;verticalAlign=top;fillColor=#e1d5e7;strokeColor=#9673a6;align=left;fontSize=12;" vertex="1" parent="1">
                    <mxGeometry x="190" y="1601" width="130" height="50" as="geometry"/>
                </mxCell>
                <mxCell id="64" value="&lt;span lang=&quot;EN-US&quot; style=&quot;font-family: &amp;#34;liberation serif&amp;#34; , serif&quot;&gt;&lt;font style=&quot;font-size: 12px&quot;&gt;login via password or ssh-key&lt;/font&gt;&lt;/span&gt;" style="rounded=1;whiteSpace=wrap;html=1;verticalAlign=top;align=left;fontSize=12;fillColor=#f5f5f5;strokeColor=#666666;fontColor=#333333;" vertex="1" parent="1">
                    <mxGeometry x="370" y="1610" width="110" height="40" as="geometry"/>
                </mxCell>
                <mxCell id="65" value="&lt;span lang=&quot;EN-US&quot; style=&quot;font-family: &amp;#34;liberation serif&amp;#34; , serif&quot;&gt;&lt;font style=&quot;font-size: 12px&quot;&gt;non standard ssh-port&lt;/font&gt;&lt;/span&gt;" style="rounded=1;whiteSpace=wrap;html=1;verticalAlign=top;align=left;fontSize=12;fillColor=#f5f5f5;strokeColor=#666666;fontColor=#333333;" vertex="1" parent="1">
                    <mxGeometry x="490" y="1610" width="110" height="40" as="geometry"/>
                </mxCell>
                <mxCell id="68" value="&lt;span style=&quot;font-family: &amp;#34;liberation serif&amp;#34; , serif&quot;&gt;&lt;font style=&quot;font-size: 12px&quot;&gt;db backups&amp;nbsp;gelegentlich manuell, &lt;br&gt;download in verschlÃ¼sseltes TrueCrypt Volume auf&amp;nbsp;Arbeits-Laptop&lt;/font&gt;&lt;/span&gt;" style="rounded=1;whiteSpace=wrap;html=1;verticalAlign=top;align=left;fontSize=12;fillColor=#f5f5f5;strokeColor=#666666;fontColor=#333333;" vertex="1" parent="1">
                    <mxGeometry x="370" y="1660" width="230" height="51" as="geometry"/>
                </mxCell>
                <mxCell id="69" value="&lt;span lang=&quot;EN-US&quot; style=&quot;font-family: &amp;#34;liberation serif&amp;#34; , serif&quot;&gt;&lt;font style=&quot;font-size: 12px&quot;&gt;Gradido Backend &lt;br&gt;Apollo&lt;br&gt;Port: 4000&lt;/font&gt;&lt;/span&gt;" style="rounded=1;whiteSpace=wrap;html=1;verticalAlign=top;gradientColor=#97d077;fillColor=#d5e8d4;strokeColor=#82b366;align=left;fontSize=12;" vertex="1" parent="1">
                    <mxGeometry x="330" y="1543.25" width="100" height="51.25" as="geometry"/>
                </mxCell>
                <mxCell id="70" value="&lt;span lang=&quot;EN-US&quot; style=&quot;font-family: &amp;#34;liberation serif&amp;#34; , serif&quot;&gt;&lt;font style=&quot;font-size: 12px&quot;&gt;Gradido Login Server HTTP Port: 1200, json: 1201&lt;/font&gt;&lt;/span&gt;" style="rounded=1;whiteSpace=wrap;html=1;verticalAlign=top;gradientColor=#97d077;fillColor=#d5e8d4;strokeColor=#82b366;align=left;fontSize=12;" vertex="1" parent="1">
                    <mxGeometry x="440" y="1543.25" width="110" height="51.25" as="geometry"/>
                </mxCell>
                <mxCell id="71" value="&lt;span lang=&quot;EN-US&quot; style=&quot;font-family: &amp;#34;liberation serif&amp;#34; , serif&quot;&gt;&lt;b&gt;&lt;span style=&quot;font-size: 12pt&quot;&gt;DARIO privat:&amp;nbsp;&lt;/span&gt;&lt;span lang=&quot;EN-US&quot; style=&quot;font-size: 12.0pt ; font-family: &amp;#34;liberation serif&amp;#34; , serif&quot;&gt;RockPi 4&lt;/span&gt;&lt;/b&gt;&lt;b style=&quot;font-size: 12pt&quot;&gt;&lt;br&gt;&lt;/b&gt;&lt;/span&gt;" style="rounded=1;whiteSpace=wrap;html=1;verticalAlign=top;fillColor=#f5f5f5;strokeColor=#666666;gradientColor=#b3b3b3;" vertex="1" parent="1">
                    <mxGeometry x="920" y="800" width="470" height="280" as="geometry"/>
                </mxCell>
                <mxCell id="72" value="&lt;ul style=&quot;font-family: &amp;#34;liberation serif&amp;#34; , serif&quot;&gt;&lt;li&gt;&lt;span lang=&quot;EN-US&quot;&gt;&lt;b&gt;CPU:&lt;/b&gt;&amp;nbsp;&lt;/span&gt;Rockchip RK3399 (2x ARM A72&lt;br/&gt;1.8 GHz, 4x ARM A53 1.4 GHz)&lt;/li&gt;&lt;li&gt;&lt;span lang=&quot;EN-US&quot;&gt;&lt;b&gt;Arbeitsspeicher&lt;/b&gt;:&amp;nbsp;&lt;/span&gt;4 GB Ram / 8 GB Swap&lt;/li&gt;&lt;li&gt;&lt;span lang=&quot;EN-US&quot;&gt;&lt;b&gt;Persistenz:&lt;/b&gt;&amp;nbsp;&lt;/span&gt;MicroSD + NVME SSD&lt;/li&gt;&lt;li&gt;&lt;b&gt;OS:&lt;/b&gt; Ubuntu 18.04.1 LTS&lt;/li&gt;&lt;li&gt;&lt;span lang=&quot;EN-US&quot; style=&quot;font-family: &amp;#34;liberation serif&amp;#34; , serif&quot;&gt;&lt;font style=&quot;font-size: 12px&quot;&gt;&lt;b&gt;IP/Port:&lt;/b&gt;&amp;nbsp;&lt;/font&gt;&lt;/span&gt;&lt;br&gt;&lt;/li&gt;&lt;/ul&gt;" style="rounded=0;whiteSpace=wrap;html=1;verticalAlign=middle;labelPosition=center;verticalLabelPosition=middle;align=left;spacing=0;spacingTop=0;" vertex="1" parent="1">
                    <mxGeometry x="985" y="831" width="365" height="109" as="geometry"/>
                </mxCell>
                <mxCell id="79" value="&lt;span style=&quot;font-family: &amp;#34;liberation serif&amp;#34; , serif&quot;&gt;&lt;font style=&quot;font-size: 12px&quot;&gt;privater Hauptwebserver, &lt;br&gt;auch zum Testen von Gradido (GDT + Community-Server)&lt;/font&gt;&lt;/span&gt;" style="rounded=1;whiteSpace=wrap;html=1;verticalAlign=top;align=left;fontSize=12;fillColor=#f5f5f5;strokeColor=#666666;fontColor=#333333;" vertex="1" parent="1">
                    <mxGeometry x="950" y="954.5" width="300" height="40" as="geometry"/>
                </mxCell>
                <mxCell id="81" value="&lt;span lang=&quot;EN-US&quot; style=&quot;font-family: &amp;#34;liberation serif&amp;#34; , serif&quot;&gt;&lt;font style=&quot;font-size: 12px&quot;&gt;GDT Production Backup Server&lt;/font&gt;&lt;/span&gt;" style="rounded=1;whiteSpace=wrap;html=1;verticalAlign=top;align=left;fontSize=12;fillColor=#f5f5f5;strokeColor=#666666;fontColor=#333333;" vertex="1" parent="1">
                    <mxGeometry x="950" y="1004.5" width="300" height="41" as="geometry"/>
                </mxCell>
                <mxCell id="84" value="&lt;span lang=&quot;EN-US&quot; style=&quot;font-family: &amp;#34;liberation serif&amp;#34; , serif&quot;&gt;&lt;b&gt;&lt;span style=&quot;font-size: 12pt&quot;&gt;DARIO privat:&amp;nbsp;&lt;/span&gt;&lt;/b&gt;&lt;span lang=&quot;EN-US&quot; style=&quot;font-size: 12.0pt ; font-family: &amp;#34;liberation serif&amp;#34; , serif&quot;&gt;&lt;b&gt;J4125B-ITX&lt;/b&gt;&lt;/span&gt;&lt;b style=&quot;font-size: 12pt&quot;&gt;&lt;br&gt;&lt;/b&gt;&lt;/span&gt;" style="rounded=1;whiteSpace=wrap;html=1;verticalAlign=top;fillColor=#f5f5f5;strokeColor=#666666;gradientColor=#b3b3b3;" vertex="1" parent="1">
                    <mxGeometry x="920" y="1120" width="470" height="280" as="geometry"/>
                </mxCell>
                <mxCell id="85" value="&lt;ul style=&quot;font-family: &amp;#34;liberation serif&amp;#34; , serif&quot;&gt;&lt;li&gt;&lt;span lang=&quot;EN-US&quot;&gt;&lt;b&gt;CPU:&lt;/b&gt;&amp;nbsp;&lt;/span&gt;IntelÂ® CeleronÂ® Prozessor&lt;br/&gt;J4125 4x 2,7 GHz&lt;/li&gt;&lt;li&gt;&lt;span lang=&quot;EN-US&quot;&gt;&lt;b&gt;Arbeitsspeicher&lt;/b&gt;:&amp;nbsp;&lt;/span&gt;32 GB Ram DDR4 / 64 GB Swap&lt;/li&gt;&lt;li&gt;&lt;span lang=&quot;EN-US&quot;&gt;&lt;b&gt;Persistenz:&lt;/b&gt;&amp;nbsp;&lt;/span&gt;SSD&lt;/li&gt;&lt;li&gt;&lt;b&gt;OS:&lt;/b&gt; Ubuntu 18.04.5 LTS&lt;/li&gt;&lt;li&gt;&lt;span lang=&quot;EN-US&quot; style=&quot;font-family: &amp;#34;liberation serif&amp;#34; , serif&quot;&gt;&lt;font style=&quot;font-size: 12px&quot;&gt;&lt;b&gt;IP/Port:&lt;/b&gt;&amp;nbsp;&lt;/font&gt;&lt;/span&gt;&lt;br&gt;&lt;/li&gt;&lt;/ul&gt;" style="rounded=0;whiteSpace=wrap;html=1;verticalAlign=middle;labelPosition=center;verticalLabelPosition=middle;align=left;spacing=0;spacingTop=0;" vertex="1" parent="1">
                    <mxGeometry x="985" y="1151" width="365" height="109" as="geometry"/>
                </mxCell>
                <mxCell id="86" value="&lt;span style=&quot;font-family: &amp;#34;liberation serif&amp;#34; , serif&quot;&gt;u.a. um den Login-Server fÃ¼r den Production-Server zu kompilieren,&amp;nbsp;&lt;br&gt;weil hier das gleiche Betriebssystem lÃ¤uft wie auf dem Production Server&lt;/span&gt;" style="rounded=1;whiteSpace=wrap;html=1;verticalAlign=top;align=left;fontSize=12;fillColor=#f5f5f5;strokeColor=#666666;fontColor=#333333;" vertex="1" parent="1">
                    <mxGeometry x="950" y="1274.5" width="420" height="40" as="geometry"/>
                </mxCell>
                <mxCell id="87" value="&lt;p class=&quot;Textbody&quot;&gt;Login nur im Lokalen Netzwerk Ã¼ber Passwort&lt;/p&gt;" style="rounded=1;whiteSpace=wrap;html=1;verticalAlign=top;align=left;fontSize=12;fillColor=#f5f5f5;strokeColor=#666666;fontColor=#333333;" vertex="1" parent="1">
                    <mxGeometry x="950" y="1324.5" width="280" height="41" as="geometry"/>
                </mxCell>
                <mxCell id="88" value="&lt;span lang=&quot;EN-US&quot; style=&quot;font-family: &amp;#34;liberation serif&amp;#34; , serif&quot;&gt;&lt;b&gt;&lt;span style=&quot;font-size: 12pt&quot;&gt;1fire:&amp;nbsp;&lt;/span&gt;&lt;span lang=&quot;EN-US&quot; style=&quot;font-size: 12.0pt ; font-family: &amp;#34;liberation serif&amp;#34; , serif&quot;&gt;VPS Linux: DARIO privat&lt;/span&gt;&lt;/b&gt;&lt;b style=&quot;font-size: 12pt&quot;&gt;&lt;br&gt;&lt;/b&gt;&lt;/span&gt;" style="rounded=1;whiteSpace=wrap;html=1;verticalAlign=top;fillColor=#f5f5f5;strokeColor=#666666;gradientColor=#b3b3b3;" vertex="1" parent="1">
                    <mxGeometry x="920" y="1444.5" width="470" height="320" as="geometry"/>
                </mxCell>
                <mxCell id="89" value="&lt;ul style=&quot;font-family: &amp;#34;liberation serif&amp;#34; , serif&quot;&gt;&lt;li&gt;&lt;span lang=&quot;EN-US&quot;&gt;&lt;b&gt;CPU:&lt;/b&gt;&amp;nbsp;1x&lt;/span&gt;&amp;nbsp;vCore (2,4 GHz)&lt;/li&gt;&lt;li&gt;&lt;span lang=&quot;EN-US&quot;&gt;&lt;b&gt;Arbeitsspeicher&lt;/b&gt;: 1&lt;/span&gt;&amp;nbsp;GB / 500 MB Swap&lt;/li&gt;&lt;li&gt;&lt;span lang=&quot;EN-US&quot;&gt;&lt;b&gt;Persistenz:&lt;/b&gt;&amp;nbsp;?&lt;/span&gt;&lt;/li&gt;&lt;li&gt;&lt;b&gt;OS:&lt;/b&gt; Ubuntu 18.04.6 LTS&lt;/li&gt;&lt;li&gt;&lt;span lang=&quot;EN-US&quot; style=&quot;font-family: &amp;#34;liberation serif&amp;#34; , serif&quot;&gt;&lt;font style=&quot;font-size: 12px&quot;&gt;&lt;b&gt;IP/Port:&lt;/b&gt;&amp;nbsp;&lt;/font&gt;&lt;/span&gt;62.113.241.71&lt;br&gt;&lt;/li&gt;&lt;/ul&gt;" style="rounded=0;whiteSpace=wrap;html=1;verticalAlign=middle;labelPosition=center;verticalLabelPosition=middle;align=left;spacing=0;spacingTop=0;" vertex="1" parent="1">
                    <mxGeometry x="985" y="1475.5" width="365" height="109" as="geometry"/>
                </mxCell>
                <mxCell id="95" value="&lt;span style=&quot;font-family: &amp;#34;liberation serif&amp;#34; , serif&quot;&gt;&lt;b&gt;gradido.com:&lt;/b&gt;&lt;br&gt;SprachabhÃ¤ngiger Link zur Elopage Registrierung, gibt publisher-id weiter wenn angegeben, z.B. &lt;a href=&quot;https://gradido.com/173817&quot;&gt;&lt;span&gt;https://gradido.com/173817&lt;/span&gt;&lt;/a&gt;)&lt;/span&gt;" style="rounded=1;whiteSpace=wrap;html=1;verticalAlign=top;fillColor=#e1d5e7;strokeColor=#9673a6;align=left;fontSize=12;" vertex="1" parent="1">
                    <mxGeometry x="940" y="1594.5" width="250" height="70" as="geometry"/>
                </mxCell>
                <mxCell id="96" value="&lt;span lang=&quot;EN-US&quot; style=&quot;font-family: &amp;#34;liberation serif&amp;#34; , serif&quot;&gt;&lt;font style=&quot;font-size: 12px&quot;&gt;login via ssh-key&lt;/font&gt;&lt;/span&gt;" style="rounded=1;whiteSpace=wrap;html=1;verticalAlign=top;align=left;fontSize=12;fillColor=#f5f5f5;strokeColor=#666666;fontColor=#333333;" vertex="1" parent="1">
                    <mxGeometry x="1240" y="1594.5" width="110" height="40" as="geometry"/>
                </mxCell>
                <mxCell id="97" value="&lt;span lang=&quot;EN-US&quot; style=&quot;font-family: &amp;#34;liberation serif&amp;#34; , serif&quot;&gt;&lt;font style=&quot;font-size: 12px&quot;&gt;non standard ssh-port&lt;/font&gt;&lt;/span&gt;" style="rounded=1;whiteSpace=wrap;html=1;verticalAlign=top;align=left;fontSize=12;fillColor=#f5f5f5;strokeColor=#666666;fontColor=#333333;" vertex="1" parent="1">
                    <mxGeometry x="1240" y="1639" width="110" height="40" as="geometry"/>
                </mxCell>
                <mxCell id="98" value="&lt;span style=&quot;font-family: &amp;#34;liberation serif&amp;#34; , serif&quot;&gt;&lt;font style=&quot;font-size: 12px&quot;&gt;arbeitet fÃ¼r mich als dns-server um meine Domains auf meinen Anschluss (wechselnde IP) zu routen&lt;/font&gt;&lt;/span&gt;" style="rounded=1;whiteSpace=wrap;html=1;verticalAlign=top;align=left;fontSize=12;fillColor=#f5f5f5;strokeColor=#666666;fontColor=#333333;" vertex="1" parent="1">
                    <mxGeometry x="1120" y="1690" width="230" height="51" as="geometry"/>
                </mxCell>
                <mxCell id="106" value="&lt;span lang=&quot;EN-US&quot; style=&quot;font-size: 12px ; font-family: &amp;#34;liberation serif&amp;#34; , serif&quot;&gt;CommunityServer&lt;/span&gt;" style="rounded=1;whiteSpace=wrap;html=1;verticalAlign=top;gradientColor=#97d077;fillColor=#d5e8d4;strokeColor=#82b366;align=left;fontSize=12;" vertex="1" parent="1">
                    <mxGeometry x="317" y="1501" width="93" height="29" as="geometry"/>
                </mxCell>
                <mxCell id="107" value="&lt;span lang=&quot;EN-US&quot; style=&quot;font-size: 12px ; font-family: &amp;#34;liberation serif&amp;#34; , serif&quot;&gt;GDT-Server&lt;/span&gt;" style="rounded=1;whiteSpace=wrap;html=1;verticalAlign=top;gradientColor=#97d077;fillColor=#d5e8d4;strokeColor=#82b366;align=left;fontSize=12;" vertex="1" parent="1">
                    <mxGeometry x="1302" y="319.75" width="80" height="50.25" as="geometry"/>
                </mxCell>
                <mxCell id="108" value="&lt;span lang=&quot;EN-US&quot; style=&quot;font-size: 12px ; font-family: &amp;#34;liberation serif&amp;#34; , serif&quot;&gt;GDT-Server&lt;/span&gt;" style="rounded=1;whiteSpace=wrap;html=1;verticalAlign=top;gradientColor=#97d077;fillColor=#d5e8d4;strokeColor=#82b366;align=left;fontSize=12;" vertex="1" parent="1">
                    <mxGeometry x="317" y="1062" width="63" height="29" as="geometry"/>
                </mxCell>
            </root>
        </mxGraphModel>
    </diagram>
</mxfile>